<svg  width="37" height="39" viewBox="0 0 37 39" fill="none" xmlns="http://www.w3.org/2000/svg">
<g id="exclamation-triangle 1" clip-path="url(#clip0_1669_30137)">
<path id="Vector" d="M36.3898 29.4304L22.2298 5.04956C20.5527 2.15503 16.4481 2.15503 14.7636 5.04956L0.618273 29.4304C-1.103 32.3843 0.986066 36.125 4.3477 36.125H32.6531C36.0147 36.125 38.1038 32.3843 36.3898 29.4304ZM18.6254 30.2023C17.5515 30.2023 16.6688 29.3265 16.6688 28.2355C16.6688 27.1519 17.5441 26.2687 18.6254 26.2687C19.7067 26.2687 20.5821 27.1445 20.5821 28.2355C20.5821 29.3265 19.6994 30.2023 18.6254 30.2023ZM20.104 21.2589C19.7729 23.2777 19.5964 24.4503 19.5964 24.7324C19.589 25.1406 19.567 25.3039 19.4714 25.4152C19.3463 25.571 19.133 25.5933 18.9785 25.5933H18.2871C18.1179 25.5933 17.9119 25.571 17.8016 25.4226C17.7059 25.3113 17.6765 25.1554 17.6765 24.7992C17.6765 24.5988 17.5809 23.6859 16.9556 19.8191C16.3966 16.2492 16.3966 16.0117 16.3966 15.93C16.3966 15.3585 16.6026 14.8613 17.0145 14.4605C17.4117 14.0597 17.9928 13.8593 18.7063 13.8593C19.4052 13.8593 19.9495 14.082 20.3246 14.5125C20.6998 14.9503 20.8837 15.4476 20.8837 16.0117C20.8763 16.1601 20.8763 16.5683 20.104 21.2589Z" fill="#FC9823"/>
</g>
<defs>
<clipPath id="clip0_1669_30137">
<rect width="37" height="38" fill="white" transform="translate(0 0.5)"/>
</clipPath>
</defs>
</svg>
