<svg width="157" height="38" viewBox="0 0 157 38" fill="none" xmlns="http://www.w3.org/2000/svg">
<g clip-path="url(#clip0_891_23615)">
<path d="M56.1532 13.7895H48.3684V18.0204H53.8612V20.9978H48.3684V28.206H44.6934V10.773H56.1532V13.7895ZM58.4452 24.6019V10.773H61.8831V24.406C61.8831 24.8761 61.9622 25.2287 62.0807 25.3854C62.2388 25.5421 62.5549 25.6204 63.0686 25.6204H63.6614V28.206C62.713 28.2452 62.1202 28.2452 61.8436 28.2452C60.5791 28.2452 59.6702 27.971 59.1565 27.4617C58.6823 26.9524 58.4452 25.973 58.4452 24.6019ZM71.1301 26.0514C72.276 26.0514 73.1849 25.5029 73.8567 24.406L76.2277 25.5421C75.7535 26.4823 75.0422 27.1875 74.0938 27.6967C73.1454 28.206 72.118 28.4411 70.972 28.4411C69.2728 28.4411 67.8502 27.8926 66.7042 26.8349C65.5582 25.7771 64.9654 24.3277 64.9654 22.5648C64.9654 20.9194 65.5187 19.5091 66.6647 18.4122C67.8106 17.3153 69.2333 16.7277 70.972 16.7277C72.7502 16.7277 74.2124 17.3153 75.2398 18.4514C76.3067 19.5875 76.8205 21.1153 76.8205 22.9565V23.3875H68.4034C68.4824 24.1318 68.7591 24.7978 69.2728 25.2679C69.7865 25.8163 70.4188 26.0514 71.1301 26.0514ZM70.9325 19.2349C70.2607 19.2349 69.7075 19.4308 69.2728 19.8225C68.8381 20.2143 68.5615 20.7235 68.4429 21.3895H73.3825C73.264 20.6452 72.9873 20.0967 72.5527 19.7442C72.118 19.4308 71.5647 19.2349 70.9325 19.2349ZM81.3254 17.0411L83.7359 20.2534L86.265 17.0411H89.8215L85.4746 22.4473L89.94 28.206H86.1859L83.5778 24.7978L80.9302 28.206H77.3342L81.8786 22.604L77.5318 17.0411H81.3254ZM102.585 12.6534L101.044 13.8287C100.293 12.6926 99.1474 12.1442 97.6853 12.1442C95.8675 12.1442 93.9707 13.0844 93.9707 15.239C93.9707 19.8617 102.862 17.4328 102.862 23.6225C102.862 26.7565 99.8982 28.5978 97.1716 28.5978C95.0772 28.5978 93.0223 27.8534 91.7183 26.0514L93.299 24.9153C94.0498 26.1689 95.4328 26.9916 97.2506 26.9916C98.9894 26.9916 100.965 25.8555 100.965 23.8576C100.965 18.9998 92.0739 21.7029 92.0739 15.3957C92.0739 12.1442 94.8401 10.5771 97.6853 10.5771C99.6216 10.5771 101.202 11.1256 102.585 12.6534ZM106.102 35.2184V16.8452H107.723V18.7256H107.762C108.829 17.1978 110.686 16.5318 112.227 16.5318C115.823 16.5318 118.313 19.0782 118.313 22.5256C118.313 25.973 115.784 28.4802 112.227 28.4802C110.726 28.4802 108.829 27.8143 107.762 26.2864H107.723V35.1792H106.102V35.2184ZM116.574 22.5256C116.574 19.9792 114.915 18.0204 112.227 18.0204C109.58 18.0204 107.644 19.9792 107.644 22.5256C107.644 25.072 109.58 27.0308 112.227 27.0308C114.875 27.0308 116.574 25.072 116.574 22.5256ZM127.876 21.2328H128.666V20.9586C128.666 18.9998 127.718 18.0204 125.742 18.0204C124.399 18.0204 123.213 18.4906 122.225 19.3524L121.237 18.2163C122.304 17.1586 123.924 16.571 126.098 16.571C128.35 16.571 130.287 17.8246 130.287 20.606V25.6988C130.287 26.5607 130.366 27.6576 130.484 28.2452H128.904C128.824 27.6967 128.745 26.9916 128.745 26.404H128.706C127.758 27.8926 126.493 28.5586 124.675 28.5586C122.66 28.5586 120.724 27.4225 120.724 25.2287C120.724 21.4679 125.11 21.2328 127.876 21.2328ZM128.666 22.5648H127.837C126.177 22.5648 122.502 22.6823 122.502 24.9545C122.502 26.4431 123.885 27.0308 125.189 27.0308C127.56 27.0308 128.666 25.3854 128.666 23.3483V22.5648ZM143.959 18.5297L142.655 19.5091C142.102 18.6864 141.075 18.0204 139.771 18.0204C137.083 17.9813 135.463 19.94 135.463 22.5256C135.463 25.1112 137.123 27.1091 139.771 27.0308C141.035 27.0308 142.102 26.3648 142.655 25.5421L143.959 26.5215C142.813 27.8143 141.312 28.4802 139.771 28.4802C136.017 28.5194 133.685 25.9339 133.685 22.4864C133.685 19.039 136.017 16.4534 139.771 16.4926C141.312 16.571 142.813 17.1978 143.959 18.5297ZM157 22.9565H147.437C147.634 25.2287 149.373 27.0308 151.665 27.0308C153.364 27.0308 154.708 26.0906 155.34 25.072L156.605 26.0905C155.261 27.7751 153.562 28.4802 151.665 28.4802C148.267 28.4802 145.738 25.9339 145.738 22.4864C145.738 19.039 148.267 16.4926 151.507 16.4926C154.985 16.5318 157 19.0782 157 22.173V22.9565ZM147.516 21.6637H155.261C155.261 19.5091 153.878 18.0204 151.547 18.0204C149.413 18.0204 147.516 19.7833 147.516 21.6637Z" fill="#252525"/>
<mask id="mask0_891_23615" style="mask-type:luminance" maskUnits="userSpaceOnUse" x="0" y="0" width="36" height="38">
<path d="M35.2489 0H0V38H35.2489V0Z" fill="white"/>
</mask>
<g mask="url(#mask0_891_23615)">
<path d="M35.2489 17.4722V31.8103H32.0876V17.4722C32.0876 9.55876 25.6068 3.13402 17.6245 3.13402C9.64208 3.13402 3.16134 9.55876 3.16134 17.4722V34.866H25.8044V17.5113C25.8044 13.0454 22.1689 9.44124 17.664 9.44124C13.1591 9.44124 9.52353 13.0454 9.52353 17.5113V31.4969H6.3622V17.5113C6.3622 11.3216 11.4203 6.30722 17.664 6.30722C23.9076 6.30722 28.9658 11.3216 28.9658 17.5113V38H0V17.4722C0 7.83505 7.90335 0 17.6245 0C27.3456 0 35.2489 7.83505 35.2489 17.4722Z" fill="#23BABC"/>
<path d="M12.3687 21.899C13.1195 21.899 13.7518 21.2722 13.7518 20.5279C13.7518 19.7835 13.1195 19.1567 12.3687 19.1567C11.6179 19.1567 10.9856 19.7835 10.9856 20.5279C10.9856 21.2722 11.6179 21.899 12.3687 21.899Z" fill="#23BABC"/>
</g>
</g>
<defs>
<clipPath id="clip0_891_23615">
<rect width="157" height="38" fill="white"/>
</clipPath>
</defs>
</svg>
