<svg width="18" height="24" viewBox="0 0 18 24" fill="none" xmlns="http://www.w3.org/2000/svg">
<g clip-path="url(#clip0_482_8036)">
<path d="M4.56563 9.66562C4.56563 10.0266 4.86094 10.3219 5.22188 10.3219H13.1016C13.4625 10.3219 13.7578 10.0266 13.7578 9.66562C13.7578 9.30469 13.4625 9.00937 13.1016 9.00937H5.22188C4.86094 9.00937 4.56563 9.30469 4.56563 9.66562ZM4.56563 6.05625C4.56563 6.41719 4.86094 6.7125 5.22188 6.7125H13.1016C13.4625 6.7125 13.7578 6.41719 13.7578 6.05625C13.7578 5.69531 13.4625 5.4 13.1016 5.4H5.22188C4.86094 5.4 4.56563 5.69531 4.56563 6.05625ZM8.30156 14.7797L8.36719 14.7141L9.28125 13.8281L8.02031 13.6453L7.92656 13.6312L7.88437 13.5469L7.32187 12.4031L6.75937 13.5469L6.71719 13.6312L6.62344 13.65L5.3625 13.8281L6.27188 14.7141L6.34219 14.7797L6.32344 14.8734L6.10781 16.125L7.2375 15.5344L7.32187 15.4922L7.40625 15.5344L8.54062 16.125L8.325 14.8734L8.30156 14.7797ZM10.0594 13.5703L9.69844 13.5187L8.17031 13.3031L7.49063 11.9203L7.33125 11.5969L7.16719 11.925L6.48281 13.3078L4.95469 13.5234L4.59375 13.575L4.85625 13.8328L5.9625 14.9062L5.7 16.425L5.63906 16.7859L5.9625 16.6125L7.33125 15.9L8.69531 16.6078L9.01406 16.7812L8.95312 16.4203L8.69531 14.9016L9.80156 13.8281L10.0594 13.5703ZM8.50312 14.8453L8.78437 16.4578L7.33125 15.6984L5.87813 16.4578L6.15938 14.8453L4.98281 13.7016L6.60938 13.4672L7.33594 12L8.0625 13.4672L9.68438 13.7016L8.50312 14.8453ZM7.92656 13.6312L7.88437 13.5469L7.32187 12.4031L6.75937 13.5469L6.71719 13.6312L6.62344 13.65L5.3625 13.8281L6.27188 14.7141L6.34219 14.7797L6.32344 14.8734L6.10781 16.125L7.2375 15.5344L7.32187 15.4922L7.40625 15.5344L8.54062 16.125L8.325 14.8734L8.30156 14.7797L8.36719 14.7141L9.28125 13.8281L8.02031 13.6453L7.92656 13.6312ZM8.30156 14.7797L8.36719 14.7141L9.28125 13.8281L8.02031 13.6453L7.92656 13.6312L7.88437 13.5469L7.32187 12.4031L6.75937 13.5469L6.71719 13.6312L6.62344 13.65L5.3625 13.8281L6.27188 14.7141L6.34219 14.7797L6.32344 14.8734L6.10781 16.125L7.2375 15.5344L7.32187 15.4922L7.40625 15.5344L8.54062 16.125L8.325 14.8734L8.30156 14.7797ZM0.75 3.60938V18.7969C0.75 19.9641 1.69219 20.9062 2.85938 20.9062H2.93437V19.6359H2.67188C2.33438 19.6359 2.0625 19.3641 2.0625 19.0266L2.05312 3.46406C2.05312 3.12656 2.325 2.85469 2.6625 2.85469L15.6562 2.83594C15.9937 2.83594 16.2656 3.10781 16.2656 3.44531V18.9844C16.2656 19.3219 15.9937 19.5938 15.6562 19.5938H11.8406V20.9062H15.4688C16.6359 20.9062 17.5781 19.9641 17.5781 18.7969V3.60938C17.5781 2.44219 16.6359 1.5 15.4688 1.5H2.85938C1.69219 1.5 0.75 2.44219 0.75 3.60938ZM7.27031 18.4359C5.32031 18.4359 4.56563 17.2547 4.56563 17.2547V22.5L7.28437 20.7938L10.0266 22.5V17.2547C10.0266 17.2547 9.28594 18.4359 7.27031 18.4359ZM9.0375 20.7234L7.8 19.95L7.27969 19.6266L6.75937 19.9547L5.55 20.7188V19.125C6.03281 19.3031 6.60938 19.4203 7.27031 19.4203C7.97813 19.4203 8.57344 19.2938 9.0375 19.125V20.7234Z" />
</g>
<defs>
<clipPath id="clip0_482_8036">
<rect width="16.8281" height="24" fill="white" transform="translate(0.75)"/>
</clipPath>
</defs>
</svg>
