<svg width="13" height="18" viewBox="0 0 13 18" fill="none" xmlns="http://www.w3.org/2000/svg">
<path d="M0.414062 4.45078V16.3266C0.414062 16.9383 0.913281 17.4375 1.52852 17.4375H11.882C12.4973 17.4375 12.9965 16.9383 12.9965 16.323V4.45078H0.414062ZM11.4145 16.3828H1.99258C1.70078 16.3828 1.46875 16.1473 1.46875 15.859V5.50547H11.9383V15.859C11.9383 16.1473 11.7027 16.3828 11.4145 16.3828ZM12.4691 2.76328H10.177V1.96172C10.177 1.1918 9.55117 0.5625 8.77773 0.5625H4.6293C3.85586 0.5625 3.22656 1.1918 3.22656 1.96523V2.76328H0.941406C0.649609 2.76328 0.414062 3.00234 0.414062 3.29062C0.414062 3.57891 0.649609 3.81797 0.941406 3.81797H12.4691C12.7609 3.81797 12.9965 3.57539 12.9965 3.29062C12.9965 3.00586 12.7609 2.76328 12.4691 2.76328ZM4.28828 1.93711C4.28828 1.66289 4.50977 1.44141 4.78398 1.44141H8.63008C8.9043 1.44141 9.12578 1.66289 9.12578 1.93711V2.76328H4.28828V1.93711Z" fill="#B8BFCC"/>
</svg>
