<svg width="15" height="16" viewBox="0 0 15 16" fill="none" xmlns="http://www.w3.org/2000/svg">
<g clip-path="url(#clip0_1008_22425)">
<path d="M10.4984 3.19368C10.5828 3.0593 9.95469 2.4718 9.08594 1.87493C8.22031 1.27493 7.44219 0.896804 7.34531 1.02493L1.02656 10.7374L0.714063 11.1968C0.870313 12.0312 2.51406 13.3531 3.85469 13.2812L4.20156 12.7906L10.4984 3.19368ZM8.63594 1.91555C8.65156 1.89055 8.79219 1.9593 8.95156 2.06868C9.10781 2.17805 9.22344 2.2843 9.20781 2.3093C9.19219 2.3343 9.04844 2.26555 8.89219 2.15618C8.73281 2.04368 8.62031 1.93743 8.63594 1.91555ZM14.4141 14.9999H4.49531L6.03594 12.7499H14.4141V14.9999ZM0.476562 11.6281L0.414062 14.9906L3.61719 13.7124C3.15469 13.6062 2.35781 13.4687 1.69219 13.0156C1.07969 12.5999 0.726562 11.9874 0.476562 11.6281Z" fill="#B8BFCC"/>
</g>
<defs>
<clipPath id="clip0_1008_22425">
<rect width="14" height="16" fill="white" transform="translate(0.414062)"/>
</clipPath>
</defs>
</svg>
